<svg version="1.1" id="Layer_1" xmlns="http://www.w3.org/2000/svg" xmlns:xlink="http://www.w3.org/1999/xlink" x="0px" y="0px"
	 viewBox="0 0 1024 1024" enable-background="new 0 0 1024 1024" xml:space="preserve">
<path fill="#000000" opacity="1.000000" stroke="none" 
	d="
M175.454407,350.753113 
	C188.278671,327.911835 217.779465,326.368530 230.872681,347.513123 
	C240.656174,363.312744 235.077682,384.160889 218.452896,392.430267 
	C214.282043,394.504883 212.938416,396.973419 213.279160,401.316284 
	C213.602005,405.431030 213.348572,409.591003 213.348572,414.578430 
	C218.961334,412.825134 223.615372,410.302551 228.791519,409.368835 
	C250.594589,405.435791 278.283936,416.244751 285.307190,443.200287 
	C286.392883,447.367218 288.258301,449.316589 292.400299,450.740540 
	C324.114746,461.643250 335.286255,501.596832 314.035828,527.389771 
	C312.680481,529.034912 311.036316,530.296204 312.463867,532.983093 
	C323.223358,553.233826 311.581268,577.431458 290.201050,585.314636 
	C288.484589,585.947449 286.764648,586.581604 285.014984,587.111694 
	C275.811890,589.899719 276.039490,589.905945 275.295776,599.568604 
	C274.621521,608.329224 273.574188,617.075073 272.315125,625.773010 
	C271.007568,634.805908 266.182678,637.852600 257.536865,635.297729 
	C244.717728,631.509705 236.765579,622.698303 233.883560,609.930054 
	C231.558899,599.631165 227.191147,591.844727 216.803787,587.794067 
	C210.697296,585.412720 206.286346,580.325195 202.378616,575.001221 
	C198.605377,578.641418 195.159576,582.187927 191.482910,585.476318 
	C169.240692,605.370056 128.105728,600.573975 112.611366,576.329773 
	C112.252808,575.768738 111.737617,575.226807 111.610382,574.610962 
	C109.778214,565.742249 103.339943,562.372620 95.676933,558.554199 
	C67.531319,544.529663 61.492489,501.313721 84.963776,481.743744 
	C91.183617,476.557709 93.686279,471.968506 93.967590,464.015656 
	C94.494705,449.113312 105.573891,437.206909 121.456696,432.832306 
	C125.846275,431.623260 128.737015,429.645569 131.517487,425.863342 
	C140.234238,414.006012 153.005188,409.663422 167.174026,408.689026 
	C176.919952,408.018768 185.975143,410.390442 195.441757,416.141388 
	C195.441757,408.860565 195.517273,402.525085 195.387848,396.193817 
	C195.356110,394.640442 193.668549,394.245911 192.452316,393.815338 
	C176.906097,388.311371 167.552658,368.840179 175.454407,350.753113 
M117.282326,480.705475 
	C116.796043,487.694031 114.720818,489.752960 107.750092,490.162781 
	C98.741028,490.692474 93.129440,495.138184 90.142235,503.766876 
	C88.413231,508.761108 88.087540,513.856262 88.373421,519.035645 
	C89.010475,530.577454 97.277969,542.177124 107.340454,545.695557 
	C108.860161,546.226990 110.578239,547.405457 112.001495,545.867126 
	C115.181625,542.429749 118.052437,538.602051 119.690216,534.277039 
	C120.914429,531.044067 117.066200,529.273376 115.720451,526.719421 
	C114.948235,525.253906 113.800308,523.987671 113.014091,522.527954 
	C110.611092,518.066589 111.377228,513.713196 114.866547,511.416412 
	C118.582741,508.970306 122.868073,509.540741 125.865891,513.633179 
	C134.161987,524.958435 144.681107,531.238037 159.160278,529.720337 
	C163.002823,529.317566 165.367310,531.522095 166.412720,535.207092 
	C168.054733,540.994995 164.289825,545.916931 157.752884,546.291138 
	C150.198257,546.723694 142.764435,545.994446 135.668457,543.200439 
	C133.415756,542.313538 131.701904,542.225098 129.886810,544.205444 
	C122.421783,552.350098 122.639938,563.626404 130.908630,570.937256 
	C143.480927,582.053162 158.099747,583.651550 172.830978,577.022644 
	C187.052460,570.623108 195.390625,558.833618 195.562119,542.773682 
	C195.866379,514.283997 195.703598,485.788513 195.581635,457.296112 
	C195.564682,453.338440 195.009186,449.305511 194.113907,445.444000 
	C191.660355,434.861328 183.793472,428.443359 171.534439,426.573883 
	C161.338837,425.019073 148.664093,430.408539 143.957382,438.299988 
	C139.891449,445.117004 141.959915,453.430389 148.851273,457.969177 
	C155.419556,462.295105 156.953369,461.697815 158.264877,454.306152 
	C158.352142,453.814301 158.451721,453.324280 158.559296,452.836426 
	C159.574173,448.233002 162.794647,445.472870 166.811066,445.760468 
	C170.755264,446.042908 173.970383,449.354187 174.267502,453.810181 
	C174.477585,456.960815 174.534286,460.158112 174.253448,463.298309 
	C173.356766,473.324677 167.947052,479.601410 160.230789,478.999420 
	C145.308533,477.835327 130.589584,469.761475 126.394394,453.328857 
	C126.080093,452.097748 126.014702,450.654419 124.293777,449.426483 
	C118.369598,451.367096 113.922287,455.326752 111.767746,461.452820 
	C109.955208,466.606628 108.851128,471.894928 114.890198,475.562958 
	C116.307266,476.423706 116.788422,478.246460 117.282326,480.705475 
M212.671997,556.713745 
	C214.833069,565.943542 220.928467,571.617859 229.303162,575.340271 
	C239.302841,579.785034 245.088272,587.781250 248.016678,598.075317 
	C248.925934,601.271545 249.614182,604.535522 250.632767,607.694580 
	C251.596130,610.682434 252.965240,613.484924 256.231812,614.768066 
	C257.520172,612.607727 257.504791,610.447266 257.719696,608.292969 
	C258.511017,600.360535 259.163422,592.400146 260.367737,584.526733 
	C261.622406,576.323853 264.030182,574.193726 272.152466,572.668640 
	C276.406372,571.869873 280.652527,571.041077 284.665375,569.355042 
	C301.180389,562.415894 304.015472,544.538086 290.439667,533.133911 
	C285.943756,529.357178 280.866211,526.518860 275.776123,523.663025 
	C273.028046,522.121216 270.644684,522.203064 267.802765,523.628357 
	C260.252197,527.415161 252.101608,529.141663 243.692169,529.194519 
	C237.516983,529.233398 234.160553,525.472717 234.694611,519.813416 
	C235.108185,515.430908 237.848343,512.913879 243.348663,512.696411 
	C258.568359,512.094849 268.979309,505.385101 272.947968,490.123108 
	C273.031219,489.802948 273.199127,489.505798 273.304260,489.190186 
	C274.581451,485.355743 277.256073,483.335663 281.257477,483.901886 
	C285.338593,484.479401 287.750671,487.120850 288.249237,491.254242 
	C288.529694,493.579529 288.070862,495.848602 287.575470,498.160645 
	C286.711823,502.191376 282.264801,506.140930 284.178314,509.615570 
	C286.053131,513.019897 291.006744,514.634399 294.351898,517.351074 
	C297.439545,519.858643 299.378632,519.196533 301.644867,516.195007 
	C309.682739,505.549164 310.026672,490.687103 302.258118,479.270142 
	C294.082520,467.254974 282.429016,463.257416 268.307770,467.225983 
	C263.592438,468.551147 261.264313,470.426300 261.048004,475.976196 
	C260.698792,484.937317 256.017578,492.121460 248.260620,496.841522 
	C243.127502,499.964935 237.001053,498.197021 234.438889,493.300781 
	C232.187881,488.999176 233.783325,485.188782 239.382050,482.106995 
	C243.004501,480.113007 244.330444,476.979797 244.673264,473.111481 
	C245.274246,466.329803 241.745834,461.021545 238.723221,455.447968 
	C236.036880,450.494446 237.188553,446.047180 241.287506,443.694183 
	C245.381317,441.344116 249.735489,442.191772 252.179810,447.144012 
	C255.050369,452.959778 258.703766,453.825439 264.025665,451.234375 
	C264.469910,451.018097 264.962952,450.851959 265.450470,450.782227 
	C270.095642,450.118073 270.191071,447.637756 268.341675,444.070984 
	C264.238983,436.158447 258.240814,430.479767 249.623093,427.844818 
	C233.238815,422.835083 210.321625,428.848267 211.136276,455.563904 
	C212.014511,484.364807 211.351898,513.212952 211.341232,542.040466 
	C211.339508,546.701416 211.195847,551.365234 212.671997,556.713745 
M191.735077,361.244324 
	C190.770859,370.603302 197.920609,378.110016 206.039551,376.263000 
	C212.302704,374.838165 216.694321,369.555420 216.627747,363.526306 
	C216.564835,357.831696 212.031860,352.349884 206.611710,351.413849 
	C200.018799,350.275208 194.700180,353.593903 191.735077,361.244324 
z"/>
<path fill="#000000" opacity="1.000000" stroke="none" 
	d="
M726.694702,538.254028 
	C723.526367,534.430664 722.754700,530.239563 722.672546,525.819580 
	C722.297729,505.656616 722.652100,485.490967 723.872498,465.378143 
	C724.605347,453.300446 725.196716,441.150330 727.363159,429.192841 
	C728.822266,421.139496 731.484131,418.375671 736.903076,418.852966 
	C744.433472,419.516205 750.283447,424.941223 750.221436,431.903351 
	C750.174316,437.196503 749.292908,442.481384 748.801575,447.771698 
	C748.282593,453.360046 747.785950,458.950470 747.258057,464.777466 
	C750.069885,465.029388 751.105408,463.028168 752.500000,461.865326 
	C768.093079,448.863556 789.470398,453.538361 798.030640,471.872742 
	C809.890991,497.275574 797.442505,529.885803 772.162170,539.737427 
	C763.276794,543.200012 754.287781,543.037903 745.200928,540.790649 
	C743.605408,540.396118 741.967224,539.519348 740.396362,540.580627 
	C735.252258,544.056030 730.964355,542.280090 726.694702,538.254028 
M755.490356,520.632690 
	C769.686462,518.453186 781.280884,501.506165 778.315552,487.120789 
	C777.399475,482.676758 776.267090,478.036377 771.138916,476.614563 
	C765.905884,475.163727 762.252869,478.295105 759.008606,481.828003 
	C757.669556,483.286133 756.450806,484.898743 755.421570,486.589691 
	C751.143982,493.617310 748.376648,501.193573 747.018127,509.339325 
	C745.715698,517.148621 746.980835,519.203735 755.490356,520.632690 
z"/>
<path fill="#000000" opacity="1.000000" stroke="none" 
	d="
M456.407257,486.447144 
	C449.558990,499.403534 447.481628,513.262878 446.502258,527.161072 
	C445.535553,540.879028 435.862030,541.881531 427.917084,538.767883 
	C424.526947,537.439392 422.661133,534.945007 422.639923,531.095886 
	C422.489288,503.796112 422.797729,476.508789 424.519318,449.252197 
	C424.896027,443.288025 424.558258,437.314728 425.559174,431.345337 
	C426.936188,423.132904 431.812378,418.167206 438.815338,418.689392 
	C446.772705,419.282776 451.645966,424.654755 451.284760,433.106445 
	C450.859375,443.059296 449.974243,452.991852 449.389008,462.939148 
	C449.295746,464.524261 448.893768,466.251587 450.961823,469.226074 
	C454.044708,465.637543 456.684479,462.088287 459.811157,459.038177 
	C464.375366,454.585693 470.027679,452.092804 476.468872,452.193695 
	C485.781433,452.339539 492.451111,457.584351 495.258209,466.582184 
	C498.248077,476.165833 497.690094,486.049316 497.096436,495.805176 
	C496.380524,507.571503 496.057617,519.382507 494.393188,531.086914 
	C493.501007,537.360413 490.951447,539.999573 484.855072,540.475708 
	C476.578033,541.122314 472.227173,538.822327 470.608948,532.790344 
	C469.025574,526.888367 469.689484,520.907410 470.181976,514.937622 
	C471.027954,504.682983 471.878448,494.428284 472.631958,484.166656 
	C472.826935,481.511749 472.956085,478.691772 469.979919,477.202911 
	C467.092896,475.758575 464.807648,477.572266 462.595337,478.902954 
	C459.810059,480.578278 458.261047,483.443726 456.407257,486.447144 
z"/>
<path fill="#000000" opacity="1.000000" stroke="none" 
	d="
M709.352417,456.472107 
	C712.885681,459.486023 713.651001,462.868164 712.888306,467.045593 
	C710.496521,480.144958 708.955505,493.328033 709.233704,506.702576 
	C709.354736,512.519714 711.238037,517.394409 714.984436,521.713257 
	C721.339478,529.039673 717.924011,538.573669 708.309082,540.427429 
	C701.293030,541.780212 694.418762,538.333618 691.331787,531.978638 
	C690.692871,530.663208 690.559326,529.047607 689.093628,528.062195 
	C687.208374,528.583313 686.444946,530.403870 685.294922,531.723572 
	C671.220093,547.873840 646.398010,543.188110 639.720520,522.726807 
	C635.289612,509.149811 637.362244,495.472870 641.273743,481.997223 
	C643.518799,474.262421 647.689026,467.784698 653.268738,462.115875 
	C663.328979,451.894958 678.494568,449.123383 691.454529,455.196167 
	C693.174988,456.002319 694.561462,456.466248 696.566833,455.590454 
	C700.713928,453.779266 704.983765,454.000946 709.352417,456.472107 
M676.401123,517.138733 
	C677.288635,516.387756 678.412048,515.792847 679.027527,514.862000 
	C685.952087,504.389191 688.280457,492.754639 685.772766,480.636139 
	C684.208618,473.077301 677.914551,471.408752 671.535217,475.800781 
	C669.592102,477.138580 668.013916,478.833405 666.671570,480.769897 
	C660.759521,489.298859 659.302124,498.900757 660.531982,508.884369 
	C661.575928,517.358521 667.631592,520.552490 676.401123,517.138733 
z"/>
<path fill="#000000" opacity="1.000000" stroke="none" 
	d="
M542.084167,452.647278 
	C547.071167,452.480927 551.509827,452.742493 555.815552,454.349091 
	C567.086731,458.554779 572.526245,466.841583 572.512085,479.951263 
	C572.499573,491.519836 565.992249,500.971924 555.277649,504.946960 
	C549.900513,506.941833 544.337585,507.630798 538.613708,507.428894 
	C534.641785,507.288818 530.660950,507.401978 526.712708,507.401978 
	C525.940247,513.822693 530.191833,519.530396 536.603516,520.667053 
	C541.844666,521.596130 546.892883,520.920532 551.515198,518.092712 
	C553.502075,516.877136 555.454285,515.603210 557.396851,514.317444 
	C561.332886,511.712128 565.239502,510.513519 569.087769,514.452637 
	C572.922119,518.377625 573.460266,524.147644 570.170898,528.599976 
	C564.267273,536.590698 555.825256,540.509521 546.375366,541.858521 
	C524.242493,545.018311 506.447693,536.284973 502.136505,512.905334 
	C498.895172,495.327484 503.336243,478.774231 515.331787,465.007294 
	C522.162415,457.167938 530.953918,452.733643 542.084167,452.647278 
M548.744019,486.054413 
	C549.996155,482.648834 550.670959,479.095856 547.870300,476.274841 
	C544.954224,473.337585 541.104797,473.988892 537.552673,474.951752 
	C532.411743,476.345276 527.378601,483.241821 527.398804,488.438507 
	C527.403503,489.658112 527.593506,490.686127 528.829163,491.337524 
	C533.219116,493.651733 545.104980,490.909576 548.744019,486.054413 
z"/>
<path fill="#000000" opacity="1.000000" stroke="none" 
	d="
M884.191895,499.602051 
	C882.374756,512.803101 877.663025,523.883362 867.578918,532.557129 
	C851.361145,546.506592 819.788452,545.273376 809.285339,522.552795 
	C805.148010,513.602844 805.214478,504.236206 806.636902,494.711914 
	C808.806152,480.187042 814.045959,467.276672 826.869873,459.014618 
	C839.363159,450.965576 852.840515,450.937347 865.783203,457.518738 
	C878.157043,463.810883 883.068909,475.375214 884.260315,488.668365 
	C884.570801,492.132538 884.266296,495.651825 884.191895,499.602051 
M858.107361,509.514069 
	C860.932678,502.455566 862.165344,495.180817 860.586975,487.660034 
	C859.289001,481.475586 855.768494,477.108856 849.335876,475.774902 
	C843.417725,474.547546 839.011475,477.259918 835.599060,481.792358 
	C829.883545,489.384003 828.335999,498.161957 829.648987,507.274353 
	C830.946045,516.276733 838.023865,521.811768 845.894287,520.578857 
	C851.919067,519.635132 855.135986,515.168518 858.107361,509.514069 
z"/>
<path fill="#000000" opacity="1.000000" stroke="none" 
	d="
M395.374359,492.294006 
	C395.072357,505.399078 395.938385,518.053101 394.392578,530.662842 
	C393.603607,537.098511 390.129425,540.177734 382.816406,540.350342 
	C374.564301,540.545166 370.128113,537.838562 369.660645,531.447205 
	C368.421356,514.504028 369.568604,497.551666 370.338501,480.628082 
	C370.723602,472.162842 370.134277,463.652924 371.427734,455.217041 
	C371.790710,452.849457 370.105316,452.741486 368.156891,452.852844 
	C363.346832,453.127686 358.517883,453.351654 353.705292,453.234467 
	C347.263000,453.077667 344.002533,449.676849 343.665955,443.274353 
	C343.066010,431.863281 346.719635,428.128723 358.298248,427.596222 
	C373.066315,426.917084 387.822418,425.969879 402.579987,425.076904 
	C405.756805,424.884674 408.871918,425.045990 412.019836,425.525482 
	C419.255737,426.627686 422.143829,429.656097 422.246124,436.560852 
	C422.362640,444.422943 418.897064,449.226013 412.092499,450.342590 
	C408.989563,450.851776 405.813507,451.399902 402.701355,451.257690 
	C397.740723,451.031036 396.282471,453.456726 396.323029,457.904419 
	C396.389832,465.226135 396.319214,472.551636 396.151703,479.871979 
	C396.060486,483.858551 395.650452,487.837830 395.374359,492.294006 
z"/>
<path fill="#000000" opacity="1.000000" stroke="none" 
	d="
M921.791260,473.555298 
	C918.826782,475.547211 919.589111,478.466980 919.121277,481.003723 
	C917.424316,490.205750 917.038696,499.495300 917.352417,508.821594 
	C917.576172,515.472534 921.403503,518.068054 927.676514,515.924927 
	C927.991638,515.817200 928.300476,515.691284 928.613525,515.577454 
	C931.990417,514.349487 935.517944,511.984619 938.682495,515.667725 
	C941.682617,519.159607 941.773926,523.278442 940.000488,527.385315 
	C936.254517,536.060303 929.115051,540.201355 920.163574,541.280151 
	C910.277466,542.471558 902.516235,538.834839 897.730652,529.827393 
	C892.192444,519.403503 893.313171,508.182648 894.192383,497.068787 
	C894.754578,489.963074 895.730835,482.886688 896.655518,475.814697 
	C897.062134,472.705261 895.752380,471.417511 892.846619,470.580933 
	C886.669006,468.802460 885.582581,466.442474 886.672974,458.699066 
	C887.425232,453.356689 889.380615,451.568420 895.558472,451.697662 
	C899.294861,451.775848 900.970947,450.326355 901.750854,446.825348 
	C902.360291,444.089935 903.368286,441.392548 904.560913,438.847839 
	C907.681519,432.189301 913.231201,430.715698 919.276978,434.976837 
	C924.070984,438.355682 926.080811,443.222992 925.004761,448.927338 
	C924.309082,452.615143 925.444885,453.779114 928.968140,453.748962 
	C930.934753,453.732117 932.903564,454.329803 934.876526,454.614227 
	C940.778137,455.465027 942.910400,457.440979 942.960693,462.140594 
	C943.029785,468.592712 939.791687,472.943359 934.139343,473.390472 
	C930.176575,473.703979 926.168701,473.447632 921.791260,473.555298 
z"/>
<path fill="#000000" opacity="1.000000" stroke="none" 
	d="
M588.547729,452.846252 
	C595.873474,452.142853 601.507996,454.003357 604.487305,461.208496 
	C608.114380,459.006287 610.731567,455.925781 614.495667,454.401062 
	C625.085205,450.111542 636.021057,455.273621 638.830627,466.278412 
	C640.034851,470.994934 640.093872,475.852509 638.988770,480.611755 
	C637.503479,487.008698 631.680176,490.573517 625.306274,489.127991 
	C622.134827,488.408722 620.076050,486.591156 619.194275,483.281342 
	C618.715271,481.483368 618.402405,478.878357 615.850769,478.882690 
	C613.595337,478.886536 612.697083,481.124115 611.789978,482.873199 
	C607.517883,491.110077 605.600037,500.054077 604.401611,509.135590 
	C603.445984,516.377930 603.024536,523.689392 602.279846,530.961304 
	C601.513367,538.446533 597.778687,541.515198 589.800415,541.369690 
	C582.133423,541.229919 578.888672,538.448669 578.649353,530.534119 
	C578.121521,513.074951 578.494568,495.629852 580.408936,478.231750 
	C581.080383,472.128967 581.300964,465.984863 582.525024,459.936401 
	C583.209290,456.555206 584.770752,454.071991 588.547729,452.846252 
z"/>
<path fill="#000000" opacity="1.000000" stroke="none" 
	d="
M619.711304,589.255920 
	C621.087830,590.928589 622.248596,592.329163 624.150085,594.623596 
	C624.150085,589.646301 624.106934,585.658020 624.168396,581.671448 
	C624.198914,579.694275 624.719299,577.967896 627.259888,578.096680 
	C629.566345,578.213501 629.816162,579.962463 629.845703,581.649353 
	C629.958862,588.130249 630.000000,594.612671 630.012573,601.094727 
	C630.015442,602.565063 630.126953,604.290527 628.356567,604.905518 
	C626.360413,605.598938 624.848938,604.617493 623.606079,603.061707 
	C619.886963,598.406189 616.141907,593.771423 611.319397,589.257446 
	C611.319397,593.284180 611.334351,597.310974 611.312866,601.337585 
	C611.302673,603.239685 611.219482,605.151917 608.535461,605.076721 
	C605.981689,605.005188 605.723877,603.190918 605.718567,601.250549 
	C605.700806,594.767639 605.691101,588.284607 605.713867,581.801819 
	C605.719055,580.311462 605.662231,578.684570 607.543701,578.140198 
	C609.350525,577.617493 610.833618,578.297241 611.972778,579.681274 
	C614.507080,582.760193 616.991028,585.880493 619.711304,589.255920 
z"/>
<path fill="#000000" opacity="1.000000" stroke="none" 
	d="
M522.446533,595.550537 
	C520.557739,593.294373 518.889893,591.315063 516.301208,588.242920 
	C516.301208,593.586487 516.333191,597.515503 516.286194,601.443665 
	C516.266113,603.115906 516.275513,604.921814 513.874146,605.042236 
	C511.402557,605.166321 510.745239,603.646545 510.742157,601.553528 
	C510.732574,595.071411 510.708374,588.589294 510.733795,582.107300 
	C510.739532,580.642456 510.545532,578.960083 512.347168,578.288391 
	C514.139771,577.620056 515.594482,578.345520 516.754761,579.735291 
	C520.361755,584.055725 523.955505,588.387207 527.943787,593.182495 
	C529.455994,589.228027 528.472595,585.641235 528.741333,582.180786 
	C528.903625,580.091064 528.900146,578.043091 531.804626,578.081604 
	C534.610168,578.118835 534.321106,580.228699 534.332092,582.010010 
	C534.372131,588.492004 534.366760,594.974548 534.322876,601.456604 
	C534.314209,602.734192 534.526794,604.255920 532.905518,604.848328 
	C531.305969,605.432800 529.946350,604.856567 528.913452,603.599487 
	C526.803467,601.031799 524.746399,598.420593 522.446533,595.550537 
z"/>
<path fill="#000000" opacity="1.000000" stroke="none" 
	d="
M824.695801,587.057129 
	C824.700623,585.071655 824.788574,583.571960 824.695312,582.083557 
	C824.506592,579.072998 825.984436,577.897766 828.855225,577.896545 
	C831.847961,577.895325 834.811951,577.915771 837.771729,578.537476 
	C843.944031,579.834045 847.616272,586.117920 844.137939,591.199951 
	C841.244446,595.427551 841.749146,598.234436 844.780029,601.546997 
	C845.410950,602.236572 846.081421,603.111328 845.548523,604.505798 
	C842.735962,605.786072 840.338501,605.276917 838.456116,602.520203 
	C837.426575,601.012451 836.385437,599.509888 835.282166,598.056152 
	C834.442383,596.949646 833.383240,596.104431 831.873047,596.656921 
	C830.556458,597.138489 830.420959,598.337097 830.377441,599.532104 
	C830.347290,600.361816 830.325500,601.191956 830.307190,602.021973 
	C830.270447,603.691650 829.781311,604.945740 827.798401,605.021606 
	C825.664917,605.103210 824.774414,603.981812 824.760498,601.995300 
	C824.726685,597.179626 824.716492,592.363708 824.695801,587.057129 
M838.057373,590.009460 
	C840.011292,588.145996 839.954712,586.197815 838.013000,584.467529 
	C836.227600,582.876648 833.933777,582.995239 831.919800,583.755310 
	C829.717163,584.586792 830.056580,586.903381 830.500549,588.504883 
	C831.649231,592.648682 834.830627,590.725464 838.057373,590.009460 
z"/>
<path fill="#000000" opacity="1.000000" stroke="none" 
	d="
M716.800415,599.396301 
	C712.724487,604.247864 702.346008,607.013916 697.437561,604.942749 
	C695.872009,604.282043 695.693604,603.055908 695.688049,601.719727 
	C695.659912,594.912598 695.698792,588.105286 695.671326,581.298157 
	C695.661926,578.975281 696.874390,578.071228 699.047852,577.951416 
	C703.060974,577.730103 707.068481,577.939758 710.864563,579.200623 
	C718.014648,581.575439 720.508728,589.904053 716.800415,599.396301 
M712.456482,594.676453 
	C712.744629,592.044617 713.110291,589.419373 711.530884,586.994446 
	C709.581299,584.001038 706.710938,582.824341 703.413208,583.616394 
	C700.230713,584.380859 701.522217,587.370911 701.317200,589.493164 
	C701.143311,591.293457 701.454285,593.143921 701.247925,594.937317 
	C700.701599,599.685181 703.461060,600.150696 707.058228,599.607117 
	C709.577454,599.226501 711.161377,597.648254 712.456482,594.676453 
z"/>
<path fill="#000000" opacity="1.000000" stroke="none" 
	d="
M458.313965,600.759766 
	C458.309113,603.443604 457.904663,605.329956 455.019653,604.972656 
	C452.349762,604.642029 452.796967,602.508606 452.697540,600.754150 
	C452.361969,594.833923 449.033264,592.616943 443.325592,594.464539 
	C440.362244,595.423767 441.441742,597.941956 441.091705,599.907837 
	C440.719910,601.995728 441.873199,605.126465 438.081726,604.968018 
	C434.578400,604.821594 435.167358,601.896667 435.136932,599.692383 
	C435.056671,593.871338 435.085510,588.047424 435.173950,582.226257 
	C435.204620,580.208313 435.359467,578.005432 438.250702,578.066101 
	C441.176208,578.127441 440.991791,580.349121 441.117798,582.364319 
	C441.536102,589.054749 441.695923,589.008545 447.885040,589.068909 
	C451.645355,589.105591 453.076385,587.603638 452.675568,584.017273 
	C452.638885,583.689026 452.657898,583.351013 452.682800,583.019958 
	C452.837128,580.968872 452.106720,578.315063 455.444153,578.194336 
	C458.922150,578.068542 458.258331,580.794922 458.285004,582.820190 
	C458.361755,588.642151 458.317200,594.465759 458.313965,600.759766 
z"/>
<path fill="#000000" opacity="1.000000" stroke="none" 
	d="
M560.999878,583.603149 
	C561.137695,582.389404 561.297913,581.568726 561.363647,580.740540 
	C561.502380,578.993164 562.257996,577.964966 564.163391,577.975159 
	C566.392151,577.987061 567.013123,579.363220 567.021179,581.235779 
	C567.049683,587.898315 567.059692,594.561096 567.044006,601.223694 
	C567.039612,603.111450 566.976135,605.013123 564.322510,605.105103 
	C561.522217,605.202026 561.177429,603.340942 560.963806,601.175903 
	C560.668274,598.180603 562.261963,594.185059 556.548462,594.248901 
	C549.831909,594.324036 549.746704,594.139343 549.325073,600.976624 
	C549.216675,602.734802 549.665894,604.923767 546.866211,605.002930 
	C543.989136,605.084412 543.789429,603.021790 543.783447,600.909058 
	C543.765503,594.579407 543.777283,588.249817 543.767212,581.920166 
	C543.764038,579.932922 544.057861,578.163025 546.606018,578.131470 
	C549.287720,578.098206 549.231140,580.031372 549.346802,581.934509 
	C549.789185,589.216492 549.811951,589.032593 556.064636,589.051392 
	C559.785278,589.062561 561.274658,587.560425 560.999878,583.603149 
z"/>
<path fill="#000000" opacity="1.000000" stroke="none" 
	d="
M669.132690,602.567749 
	C669.030823,595.623474 669.023621,589.132996 668.965027,582.642944 
	C668.935303,579.362244 670.323792,577.720215 673.772583,577.883179 
	C677.094849,578.040222 680.428467,577.947449 683.756836,577.987488 
	C685.530579,578.008789 687.143433,578.274353 687.186768,580.603394 
	C687.229492,582.895386 685.747375,583.324646 683.902832,583.342163 
	C681.739258,583.362793 679.575867,583.397949 677.412292,583.414246 
	C675.570190,583.428040 674.706543,584.272461 674.737732,586.183411 
	C674.768066,588.038086 675.548218,588.971436 677.418091,588.980652 
	C679.082336,588.988892 680.747986,588.986267 682.410156,589.056335 
	C684.265930,589.134399 686.266724,589.098999 686.162476,591.839905 
	C686.069946,594.272766 684.247864,594.182068 682.575195,594.244751 
	C680.746399,594.313416 678.913391,594.282471 677.086121,594.373108 
	C675.227966,594.465210 674.444458,595.613831 674.507202,597.364441 
	C674.579407,599.380676 676.000427,599.710388 677.632080,599.730469 
	C680.293945,599.763123 682.957031,599.767944 685.616882,599.862488 
	C687.199951,599.918762 688.025635,600.842468 688.030396,602.433655 
	C688.034363,603.735596 687.500977,604.901672 686.144287,604.947754 
	C680.850403,605.127686 675.532654,605.721191 670.278320,604.597900 
	C669.829102,604.501831 669.559204,603.566956 669.132690,602.567749 
z"/>
<path fill="#000000" opacity="1.000000" stroke="none" 
	d="
M583.246643,579.043457 
	C587.202698,576.636658 589.699219,577.546265 591.218079,581.596008 
	C593.898804,588.743530 596.727783,595.835388 599.456055,602.965393 
	C599.615356,603.381653 599.430481,603.929626 599.402527,604.480286 
	C596.423767,605.950867 594.550659,605.076904 592.897766,602.236938 
	C590.231018,597.654968 582.398560,597.739807 580.021362,602.371399 
	C578.545837,605.246460 576.721741,605.726868 573.525635,604.315308 
	C575.954285,595.693848 579.817261,587.648926 583.246643,579.043457 
M587.308289,587.179504 
	C587.204712,587.051453 587.118958,586.900574 586.992554,586.801758 
	C586.866760,586.703491 586.592834,586.569458 586.566956,586.601013 
	C585.000061,588.515137 584.062988,590.661133 583.919678,593.147461 
	C585.801392,593.888245 587.337524,593.973938 588.795898,592.841553 
	C589.332031,590.864929 588.237732,589.315796 587.308289,587.179504 
z"/>
<path fill="#000000" opacity="1.000000" stroke="none" 
	d="
M797.755737,586.083984 
	C797.791809,577.905029 797.791870,577.892517 805.422485,577.925842 
	C808.086731,577.937500 810.752380,577.987122 813.414124,578.096985 
	C815.140442,578.168213 816.247559,578.946045 816.108337,580.898193 
	C815.988586,582.576965 814.931030,583.192261 813.444092,583.253296 
	C811.447693,583.335266 809.448059,583.337646 807.449951,583.378540 
	C805.561829,583.417114 803.578979,583.423218 803.466553,586.021118 
	C803.336243,589.031006 805.590088,588.893127 807.612854,588.966553 
	C808.944519,589.014893 810.277588,589.019775 811.609802,589.054443 
	C813.358032,589.099792 815.073547,589.260559 815.124634,591.591858 
	C815.175476,593.915710 813.534790,594.207520 811.742493,594.240967 
	C809.910767,594.275146 808.077515,594.269653 806.247437,594.343323 
	C804.487976,594.414062 803.463867,595.289917 803.440063,597.143127 
	C803.414490,599.135620 804.648132,599.697083 806.353943,599.716553 
	C808.852295,599.745056 811.350769,599.767639 813.849182,599.785461 
	C815.608337,599.797974 816.741821,600.542480 816.780701,602.417053 
	C816.820007,604.315552 815.700134,605.067993 813.931274,605.083923 
	C813.431580,605.088440 812.931641,605.093506 812.432373,605.112122 
	C797.793396,605.657166 797.793701,605.657410 797.772644,591.067871 
	C797.770508,589.568665 797.761841,588.069397 797.755737,586.083984 
z"/>
<path fill="#000000" opacity="1.000000" stroke="none" 
	d="
M872.217407,590.870544 
	C874.096497,595.498596 876.061035,599.692383 877.064026,604.449646 
	C873.987671,605.617432 872.086182,605.250366 870.499939,602.135376 
	C868.207458,597.633606 860.104431,597.851685 857.442139,602.241882 
	C855.644592,605.205811 855.644592,605.205811 851.024841,604.410400 
	C852.004089,598.848511 854.621094,593.892822 856.635132,588.740356 
	C857.663147,586.110596 858.756653,583.505310 859.730652,580.855896 
	C860.517151,578.716431 861.875061,577.711304 864.230469,577.743042 
	C866.437012,577.772949 867.553589,578.910461 868.272949,580.767212 
	C869.532593,584.018921 870.806519,587.265076 872.217407,590.870544 
M864.665283,586.705383 
	C864.560364,586.580261 864.477539,586.415527 864.344238,586.341492 
	C864.218201,586.271545 863.943115,586.227295 863.897400,586.290344 
	C862.458496,588.276917 861.533020,590.430298 861.624390,592.904602 
	C863.327271,593.900452 864.806091,594.054382 866.313293,592.822571 
	C866.691284,590.739197 865.485596,589.069458 864.665283,586.705383 
z"/>
<path fill="#000000" opacity="1.000000" stroke="none" 
	d="
M788.312988,600.765625 
	C788.255066,603.126587 788.226746,605.110046 785.568970,605.031494 
	C782.660461,604.945496 782.854004,602.712830 782.746948,600.704956 
	C782.397095,594.142456 782.387329,594.293579 775.968567,594.251160 
	C772.624939,594.229126 770.891418,595.213074 771.273804,598.787109 
	C771.378967,599.770569 771.263611,600.778076 771.243896,601.774414 
	C771.207397,603.621460 770.717468,605.093933 768.461243,605.045532 
	C766.276245,604.998657 765.682373,603.592041 765.677002,601.721252 
	C765.657715,595.077576 765.646057,588.433899 765.634033,581.790222 
	C765.630432,579.786499 766.032471,578.080383 768.561035,578.104370 
	C771.196228,578.129395 771.210754,580.025818 771.312744,581.930786 
	C771.486023,585.169617 770.034912,589.217712 775.970154,589.077942 
	C782.300049,588.928711 782.439148,589.100464 782.762207,582.510986 
	C782.859741,580.522705 782.572876,578.250366 785.517578,578.156799 
	C788.577576,578.059570 788.298401,580.384338 788.308899,582.354736 
	C788.340820,588.334351 788.318909,594.314209 788.312988,600.765625 
z"/>
<path fill="#000000" opacity="1.000000" stroke="none" 
	d="
M492.037445,577.915527 
	C494.844299,577.974426 497.174957,577.991821 499.501099,578.103210 
	C501.248322,578.186829 502.282135,579.005615 502.138550,580.942505 
	C502.012848,582.638062 500.959717,583.224854 499.475800,583.276733 
	C497.147369,583.358276 494.816498,583.369263 492.486908,583.419800 
	C490.490356,583.463013 489.339600,584.390259 489.437836,586.488953 
	C489.530090,588.459961 490.918243,588.898071 492.545074,588.952698 
	C494.208435,589.008606 495.873993,588.997803 497.537476,589.051147 
	C499.250885,589.106018 501.038025,589.176819 501.091461,591.532837 
	C501.143036,593.805481 499.560425,594.204834 497.734894,594.229492 
	C495.904083,594.254211 494.073181,594.277222 492.242584,594.314209 
	C490.487122,594.349670 489.417114,595.082947 489.410004,597.006531 
	C489.402893,598.934814 490.472229,599.679504 492.228455,599.703613 
	C494.725037,599.737976 497.222107,599.757324 499.718842,599.750000 
	C501.479736,599.744873 502.601959,600.317688 502.501892,602.341919 
	C502.412354,604.153442 501.594910,605.111572 499.728912,605.107056 
	C495.401428,605.096558 491.073486,605.136047 486.746490,605.089111 
	C484.706177,605.066956 483.764862,603.857422 483.760376,601.882812 
	C483.744904,595.058044 483.479401,588.220154 483.819122,581.412720 
	C484.093201,575.920349 488.762573,578.656006 492.037445,577.915527 
z"/>
<path fill="#000000" opacity="1.000000" stroke="none" 
	d="
M390.193604,599.751038 
	C392.453583,599.767212 394.280884,599.784119 396.108185,599.802124 
	C397.791016,599.818665 398.430725,600.763977 398.457642,602.345154 
	C398.483826,603.885071 397.991852,605.018860 396.278809,605.033386 
	C391.629456,605.072815 386.978271,605.100891 382.330414,605.005737 
	C380.464783,604.967590 379.838593,603.576416 379.831207,601.908142 
	C379.801056,595.096130 379.819458,588.283813 379.771912,581.471924 
	C379.756073,579.198975 380.841919,578.037659 383.054626,578.020874 
	C387.040863,577.990723 391.028564,578.007935 395.014038,578.087036 
	C396.568634,578.117798 398.069000,578.450745 398.119659,580.498962 
	C398.174652,582.724792 396.761902,583.296082 394.881592,583.316956 
	C393.220154,583.335449 391.558167,583.335632 389.897522,583.383118 
	C387.918945,583.439697 385.574066,583.143311 385.482605,586.072083 
	C385.375702,589.495300 388.099731,588.801758 390.134644,588.955139 
	C391.623596,589.067261 393.125488,589.005249 394.615021,589.112366 
	C396.121399,589.220703 397.119934,589.955994 397.105927,591.610229 
	C397.092468,593.200500 396.257294,594.080994 394.675232,594.158020 
	C393.016968,594.238647 391.353912,594.218018 389.695038,594.289673 
	C387.746063,594.373840 385.406250,593.967957 385.437042,597.050537 
	C385.467834,600.136047 387.837097,599.619812 390.193604,599.751038 
z"/>
<path fill="#000000" opacity="1.000000" stroke="none" 
	d="
M638.824097,597.642700 
	C636.646484,591.255249 637.208923,585.624878 641.947083,581.154053 
	C646.106567,577.229309 651.205139,576.760620 656.344910,579.095276 
	C658.447571,580.050354 661.804321,581.146973 660.519409,584.210205 
	C659.173218,587.419495 656.525208,585.850830 654.225586,584.503662 
	C650.592224,582.375122 647.333679,583.453064 645.001892,586.608765 
	C642.416809,590.107178 642.729370,593.869568 645.496826,597.193359 
	C647.999695,600.199463 651.129456,600.434143 654.459778,598.526978 
	C655.034607,598.197815 655.548462,597.761475 656.087769,597.370850 
	C657.893372,596.062927 659.716614,596.330383 660.956421,597.953857 
	C662.166016,599.537903 660.572205,600.734009 659.611511,601.771240 
	C655.419983,606.296265 647.080078,606.583862 642.351074,602.295166 
	C641.022522,601.090271 640.078857,599.460999 638.824097,597.642700 
z"/>
<path fill="#000000" opacity="1.000000" stroke="none" 
	d="
M404.504425,594.281860 
	C403.530579,587.934082 405.229919,582.934143 410.417786,579.702271 
	C415.045074,576.819519 419.933044,577.020752 424.469299,580.114319 
	C425.942505,581.119019 428.547333,582.117737 426.848022,584.645142 
	C425.510712,586.634216 423.594208,586.362915 421.639893,585.002747 
	C418.776764,583.010010 415.759979,582.746948 412.939667,585.160339 
	C409.893036,587.767517 409.548431,591.205139 410.637238,594.727844 
	C412.109344,599.490417 417.189484,601.183533 421.517731,598.174011 
	C423.941803,596.488586 425.774597,595.757935 427.824585,598.315613 
	C425.755768,603.300293 421.769989,605.655762 416.076691,605.302979 
	C410.408875,604.951782 406.404144,601.250122 404.504425,594.281860 
z"/>
<path fill="#000000" opacity="1.000000" stroke="none" 
	d="
M887.468079,577.932129 
	C890.542725,578.095581 893.226868,578.035889 895.822876,578.485107 
	C901.357056,579.442749 903.580444,582.341675 903.322998,587.762329 
	C903.092041,592.624573 900.261902,596.033142 895.244446,596.155823 
	C890.982483,596.260071 888.529297,597.125610 889.162903,601.976562 
	C889.371033,603.570068 888.746277,604.947449 886.724854,604.998047 
	C884.646301,605.049988 883.667236,604.022156 883.661377,601.988098 
	C883.641357,595.012085 883.666687,588.035583 883.580872,581.060425 
	C883.550232,578.565857 884.926331,577.916016 887.468079,577.932129 
M896.466736,590.038696 
	C898.180786,588.112244 898.214966,586.084839 896.326965,584.395081 
	C894.561218,582.814636 892.141785,582.785278 890.322449,583.931885 
	C888.406860,585.139221 888.849182,587.685730 889.417847,589.408875 
	C890.727356,593.377258 893.502014,591.271423 896.466736,590.038696 
z"/>
<path fill="#000000" opacity="1.000000" stroke="none" 
	d="
M928.232056,577.943848 
	C929.829163,578.087891 931.293274,577.336670 932.497314,579.256958 
	C931.208984,581.437012 929.904602,583.887329 928.372498,586.185974 
	C925.218628,590.917847 922.166870,595.616089 922.979431,601.746887 
	C923.175842,603.228577 922.854309,604.829285 920.811218,605.031067 
	C919.174988,605.192749 917.316406,604.774597 917.481201,602.975647 
	C918.354004,593.451538 911.835327,587.072510 907.913635,579.585876 
	C907.790283,579.350403 907.972839,578.954773 908.054199,578.300659 
	C916.292542,576.214417 915.390442,585.301941 920.019653,587.993347 
	C923.819885,585.784546 923.573547,580.015625 928.232056,577.943848 
z"/>
<path fill="#000000" opacity="1.000000" stroke="none" 
	d="
M751.227295,587.478882 
	C751.207520,592.410461 751.210938,596.893616 751.182495,601.376648 
	C751.170105,603.333008 750.910400,605.123779 748.258240,604.984314 
	C745.968872,604.863770 745.686646,603.282471 745.674927,601.502380 
	C745.645386,597.019531 745.548706,592.534973 745.635254,588.054138 
	C745.691406,585.149353 745.063904,583.146851 741.567627,583.319397 
	C739.701782,583.411438 737.698486,583.301331 737.819275,580.597778 
	C737.938477,577.929199 740.060974,578.067200 741.838623,578.034973 
	C746.485779,577.950500 751.135254,577.976135 755.783691,577.997681 
	C757.389465,578.005066 758.815552,578.412109 758.946655,580.381042 
	C759.091675,582.559387 757.802429,583.335754 755.853699,583.305481 
	C753.258606,583.265137 751.153320,583.776123 751.227295,587.478882 
z"/>
<path fill="#000000" opacity="1.000000" stroke="none" 
	d="
M363.642273,604.300415 
	C360.215668,605.692322 358.985962,604.204041 358.957764,601.271057 
	C358.914642,596.793213 358.853790,592.312744 358.962860,587.837341 
	C359.036804,584.804321 358.083496,583.075562 354.716888,583.296387 
	C352.783997,583.423157 350.890900,583.116333 351.105072,580.456848 
	C351.289764,578.162903 353.105164,578.086853 354.786652,578.069458 
	C359.429871,578.021484 364.074310,578.007141 368.717285,578.060974 
	C370.395782,578.080383 372.171143,578.201233 372.217194,580.583435 
	C372.261353,582.868835 370.728912,583.398865 368.919434,583.287781 
	C364.988647,583.046509 364.301208,585.246460 364.295013,588.583740 
	C364.285492,593.707703 364.816833,598.856079 363.642273,604.300415 
z"/>
<path fill="#000000" opacity="1.000000" stroke="none" 
	d="
M477.163452,593.051086 
	C475.623383,596.409485 467.053528,597.644775 465.505646,595.120422 
	C464.671844,593.760742 464.653656,591.569641 466.231506,591.330627 
	C469.874725,590.778931 473.889984,588.990967 477.163452,593.051086 
z"/>
<path fill="#000000" opacity="1.000000" stroke="none" 
	d="
M168.270142,512.924683 
	C159.608521,514.060242 151.624710,512.769714 143.766541,510.361542 
	C141.845703,509.772888 139.952393,509.054901 138.498947,507.632904 
	C135.726685,504.920563 134.849472,501.678345 136.532059,498.084320 
	C138.254715,494.404602 141.471863,493.229980 145.246490,493.846344 
	C148.678741,494.406799 152.027405,495.459778 155.442612,496.148285 
	C160.801193,497.228638 165.940948,496.886780 170.883286,494.108612 
	C175.096054,491.740540 179.120834,492.611847 181.524597,496.000122 
	C184.232544,499.817078 183.003677,503.259735 180.290955,506.407104 
	C177.235016,509.952698 173.122604,511.695251 168.270142,512.924683 
z"/>
<path fill="#000000" opacity="1.000000" stroke="none" 
	d="
M255.567535,564.187256 
	C247.417542,564.921082 240.086288,563.963806 234.060898,558.625488 
	C230.920303,555.842957 228.039856,552.589844 229.267639,547.856995 
	C230.829849,541.835083 237.909470,539.042053 242.172226,543.324097 
	C247.980988,549.159180 253.693069,547.667542 259.966705,545.056824 
	C265.826752,542.618286 269.483154,543.396729 271.858612,547.315857 
	C274.403809,551.515137 273.117645,556.398499 268.526459,559.357361 
	C264.709015,561.817566 260.448517,563.230530 255.567535,564.187256 
z"/>
</svg>